<svg width="28" height="34" viewBox="0 0 28 34" fill="none" xmlns="http://www.w3.org/2000/svg">
<path d="M18.2347 16.3277H15.3836L28 0H26.2723L13.6556 16.3277H9.76546C7.72523 16.3277 5.76856 15.5384 4.32589 14.1335C2.88323 12.7286 2.07274 10.8231 2.07274 8.83618C2.07274 6.84929 2.88323 4.94378 4.32589 3.53885C5.76856 2.13391 7.72523 1.34462 9.76546 1.34462H22.4256V0H9.76583C7.35945 0 5.05161 0.930935 3.35003 2.58802C1.64846 4.24509 0.692535 6.49258 0.692535 8.83604C0.692535 11.1795 1.64846 13.427 3.35003 15.0841C5.05161 16.7411 7.35945 17.6721 9.76583 17.6721H12.6169L0 34H1.72826L14.345 17.6721H18.2351C20.2753 17.6721 22.232 18.4614 23.6747 19.8663C25.1173 21.2713 25.9278 23.1768 25.9278 25.1636C25.9278 27.1505 25.1173 29.056 23.6747 30.461C22.232 31.8659 20.2753 32.6552 18.2351 32.6552H5.57461V34H18.2347C20.6361 33.9925 22.9366 33.0583 24.6319 31.402C26.3273 29.7457 27.2792 27.5025 27.2792 25.1639C27.2792 22.8252 26.3273 20.582 24.6319 18.9257C22.9366 17.2694 20.6361 16.3352 18.2347 16.3277Z" fill="white"/>
</svg>
